<?xml version="1.0" encoding="UTF-8" standalone="no"?>
<!-- Created with Inkscape (http://www.inkscape.org/) -->

<svg
   version="1.1"
   id="svg1"
   width="512"
   height="512"
   viewBox="0 0 512 512"
   xmlns="http://www.w3.org/2000/svg"
   xmlns:svg="http://www.w3.org/2000/svg">
  <defs
     id="defs1" />
  <g
     id="g1"
     style="fill:#111827;fill-opacity:1">
    <path
       style="fill:#ffffff;fill-opacity:1;stroke-width:2.00412"
       d="M 222.57143,491.52291 C 202.09164,488.79973 198.05012,486.14024 179.04158,462.87856 157.0246,435.9353 146.24445,429.63408 116.31302,426.21247 80.179755,422.08189 76.007968,420.8866 67.642024,412.26735 47.967108,391.99675 20.950478,344.81019 20.950478,330.71709 c 0,-3.51115 4.673909,-17.14205 10.386465,-30.29087 9.093704,-20.93135 10.386466,-25.62416 10.386466,-37.70383 0,-12.07967 -1.292762,-16.77249 -10.386466,-37.70383 -5.712556,-13.14881 -10.386465,-26.72482 -10.386465,-30.16891 0,-7.67789 11.501889,-33.5175 22.610317,-50.7953 10.791912,-16.78551 27.132211,-35.42371 33.596997,-38.32166 2.830956,-1.26904 17.280669,-3.76368 32.110488,-5.54365 37.73241,-4.528907 46.11715,-9.132274 70.49379,-38.702384 12.42431,-15.071325 19.87857,-22.396638 24.22656,-23.807456 19.45746,-6.313478 72.83606,-7.426514 97.39642,-2.030864 11.46423,2.518557 15.0515,5.54896 34.63786,29.260744 21.14224,25.595373 30.74567,30.564988 68.01775,35.19806 14.75894,1.83461 29.51692,4.6268 32.79551,6.2049 14.0801,6.77722 52.23998,66.04157 55.04141,85.4825 0.83196,5.77392 -1.17595,12.41214 -9.55056,31.57381 -9.6214,22.0149 -10.60396,25.66094 -10.60396,39.35404 0,13.6931 0.98256,17.33914 10.60396,39.35404 8.69617,19.89718 10.40101,25.67138 9.47599,32.09138 -2.72105,18.88271 -41.08387,78.30012 -54.7965,84.87012 -3.18491,1.52597 -17.91381,4.2894 -32.73099,6.14099 -37.79629,4.72307 -45.77054,9.01773 -70.69243,38.07263 -10.2826,11.98785 -21.03982,22.83706 -23.90493,24.10934 -12.64352,5.61449 -59.38694,7.84793 -87.10673,4.16202 z m 59.41322,-45.79131 c 2.46867,-0.69158 12.0268,-10.14702 21.24028,-21.0121 11.84292,-13.96587 19.3541,-20.97559 25.63228,-23.92106 4.88425,-2.2915 14.02177,-7.00341 20.30558,-10.47093 9.65775,-5.32929 15.40521,-6.80549 37.15436,-9.54275 29.16139,-3.67014 27.70239,-2.77949 41.73627,-25.47843 14.60125,-23.61659 14.49302,-22.15467 3.48042,-47.04872 l -9.66579,-21.84942 v -23.83598 -23.83598 l 9.60939,-21.8383 c 10.93606,-24.85306 11.04553,-23.35575 -3.42402,-46.75948 -14.08145,-22.77588 -12.52504,-21.83486 -42.80437,-25.88052 -23.92018,-3.19602 -28.19385,-4.37592 -40.54687,-11.19435 -7.59463,-4.192 -16.62072,-9.05697 -20.05795,-10.81103 C 321.20699,120.49847 311.22039,110.36966 302.4518,99.744059 284.51373,78.007121 284.64699,78.07029 256.72325,78.07029 c -28.13964,0 -28.04749,-0.04369 -46.02025,21.780939 -8.77526,10.655891 -18.69894,20.773021 -22.05263,22.482451 -3.3537,1.70945 -12.26936,6.50724 -19.81258,10.66177 -12.22275,6.73182 -16.65744,7.95275 -40.75956,11.22161 -14.87456,2.01735 -27.53618,4.31559 -28.136957,5.10717 -11.049289,14.55863 -15.090953,20.59339 -20.550412,30.68461 -3.579425,6.6162 -6.508055,13.23086 -6.508055,14.69926 0,1.46838 4.206518,12.01526 9.347819,23.43747 l 9.347819,20.76768 v 23.70351 23.70351 l -9.347819,20.76767 c -5.141301,11.42224 -9.347819,22.01663 -9.347819,23.54313 0,1.52648 2.92863,8.18867 6.508055,14.80487 5.455636,10.08417 9.55291,16.20197 20.545925,30.67785 0.598304,0.78783 12.750464,2.87835 27.004814,4.64557 23.51454,2.91528 27.29611,3.95614 40.7944,11.2284 8.18258,4.40838 17.61769,9.41922 20.96691,11.13519 3.3492,1.71597 13.34694,11.89121 22.21714,22.61165 9.54409,11.53485 17.94478,19.82268 20.57898,20.30249 7.15073,1.30247 45.57583,1.06996 50.48562,-0.30549 z m -49.15027,-92.18257 c -38.09068,-9.85145 -66.85313,-37.65173 -74.56427,-72.06989 -11.15918,-49.80839 24.39261,-99.93221 78.30177,-110.39625 48.64936,-9.44306 97.65069,16.60978 115.08669,61.18886 6.11601,15.63696 6.11601,45.26432 0,60.90128 -10.83705,27.70737 -33.12505,48.32153 -62.51678,57.82176 -15.91354,5.14372 -41.76161,6.31623 -56.30741,2.55424 z m 46.88947,-48.86417 c 17.85977,-8.54698 26.74479,-22.48755 26.74479,-41.96247 0,-14.60759 -3.24274,-22.66184 -13.11058,-32.5637 -9.64452,-9.67778 -20.44961,-13.72617 -36.63481,-13.72617 -16.18521,0 -26.99029,4.04839 -36.63481,13.72617 -9.86785,9.90186 -13.11059,17.95611 -13.11059,32.5637 0,22.661 12.51596,38.44174 36.22955,45.67998 8.2486,2.51777 27.60484,0.54722 36.51645,-3.71751 z"
       id="path1" />
  </g>
</svg>
