<?xml version="1.0" encoding="UTF-8" standalone="no"?>
<svg
   width="1000"
   height="300"
   viewBox="0 0 1000 300"
   version="1.1"
   id="svg3"
   sodipodi:docname="SplashPaintLeftSide.svg"
   inkscape:version="1.4 (86a8ad7, 2024-10-11)"
   xmlns:inkscape="http://www.inkscape.org/namespaces/inkscape"
   xmlns:sodipodi="http://sodipodi.sourceforge.net/DTD/sodipodi-0.dtd"
   xmlns="http://www.w3.org/2000/svg"
   xmlns:svg="http://www.w3.org/2000/svg">
  <defs
     id="defs3" />
  <sodipodi:namedview
     id="namedview3"
     pagecolor="#ffffff"
     bordercolor="#000000"
     borderopacity="0.25"
     inkscape:showpageshadow="2"
     inkscape:pageopacity="0.0"
     inkscape:pagecheckerboard="0"
     inkscape:deskcolor="#d1d1d1"
     inkscape:zoom="1.2501648"
     inkscape:cx="746.70155"
     inkscape:cy="125.98339"
     inkscape:window-width="1920"
     inkscape:window-height="974"
     inkscape:window-x="-11"
     inkscape:window-y="-11"
     inkscape:window-maximized="1"
     inkscape:current-layer="g2" />
  <g
     transform="matrix(0.98201952,0,0,0.73625322,-89.755464,-147.33114)"
     id="g3">
    <g
       transform="matrix(0.97692307,0,0,0.95454546,25.174855,17.415204)"
       id="g2">
      <path
         style="fill:#0088aa;fill-opacity:1;stroke-width:0.524026"
         d="m 984.18564,342.3273 c -16.57355,-10.30784 -41.61258,-18.0485 -70.13297,-21.68121 -14.60735,-1.86057 -28.65368,-2.46696 -49.92315,-2.15519 -21.51879,0.31542 -35.69537,1.41273 -57.1438,4.4231 -6.69169,0.93921 -13.3712,1.84444 -14.84338,2.01165 -4.8685,0.55295 -19.94372,-2.51611 -22.72033,-4.62547 -4.27863,-3.25043 3.03986,-4.96513 27.58701,-6.46357 18.09841,-1.10479 23.40239,-2.11063 22.67759,-4.30057 -0.97566,-2.94788 -5.89775,-10.08759 -12.95086,-18.78579 -11.05509,-13.6336 -4.07051,-20.15984 -0.83296,-22.22561 7.60569,-4.85291 17.09839,3.55785 27.61675,21.76903 2.45679,4.25365 14.33783,16.19881 23.04655,16.19881 2.68127,0 6.0921,-2.0394 7.49045,-4.47868 1.04257,-1.81866 1.10346,-2.42178 0.97726,-9.68046 -0.1307,-7.5173 -0.10049,-7.78325 1.04525,-9.20461 1.53658,-1.90621 2.86608,-1.84801 5.1955,0.22745 1.04392,0.9301 2.88353,2.57439 4.08802,3.654 3.64072,3.26317 6.7431,2.37707 9.08078,-2.59367 1.88738,-4.01319 -4.60134,-59.84712 16.98176,-57.62051 8.36088,8.65 10.7066,23.82661 11.04399,36.8128 0.24427,10.83326 0.91355,14.85492 3.18811,19.15737 2.14683,4.06076 6.11492,6.07111 9.82703,4.97863 2.58975,-0.76215 4.80179,-3.68857 7.50467,-9.92838 3.56818,-8.23738 5.69097,-10.19934 8.06148,-7.45086 1.21826,1.41247 1.36753,2.31196 1.6414,9.88887 0.23875,6.606 1.06869,9.95915 2.71822,10.98271 1.95488,1.21303 4.55688,0.662 8.07055,-1.70908 7.92203,-5.34598 11.41461,-11.57651 17.37326,-30.99305 4.00408,-13.04732 5.9619,-17.88155 9.05463,-22.35725 2.50681,-3.62772 7.35255,-7.73943 10.20284,-8.65726 3.21252,-1.03445 7.50789,-0.72776 9.88339,0.70572 3.22282,1.94473 4.46402,5.06035 4.20502,10.55517 -0.358,7.5909 -3.1142,12.44545 -15.67294,27.605 -7.02486,8.47962 -8.03341,10.00518 -10.37825,15.69874 -1.70685,4.14439 -1.80223,4.67501 -1.80223,10.01875 0,5.08896 0.12654,5.89232 1.29055,8.18782 3.55622,7.01329 6.88477,11.21733 16.85145,4.45607 2.49114,-1.68992 3.1867,-1.20701 8.20642,-6.9919 16.6001,-54.7433 67.2783,-37.76016 21.9305,12.19923 -12.5056,15.23642 -7.0101,30.09718 -5.4093,31.32662 5.1385,7.24858 13.7157,4.95232 21.3045,4.81658 9.0147,-0.83774 14.8503,-2.23398 15.938,4.07177 -170.10786,285.91226 -2.4091,40.2544 -72.27276,-7.84277 z m 77.95026,9.23996 c -2.9225,-4.30763 -3.6151,-10.9438 -1.0396,-16.91949 10.121,-23.48299 21.5975,-10.25675 23.5896,-6.31551 3.6877,7.29577 -0.3811,17.5589 -9.9836,23.04355 -3.8017,2.31043 -8.7008,3.2519 -12.5664,0.19145 z m 11.3389,-29.31576 c -3.7273,1.91167 -8.7713,7.90494 -5.3738,9.04314 2.4156,0.80932 8.1886,-10.65711 5.3738,-9.04314 z m -347.64298,-7.31285 c -4.76859,-1.38292 -10.0172,-5.88481 -12.44066,-10.67074 -2.63977,-5.21307 -1.4205,-11.82081 2.73382,-14.8158 2.70436,-1.94968 8.09025,-1.84691 11.90772,0.22718 3.18754,1.73184 7.56459,6.50072 8.9971,9.80249 2.55015,5.87786 1.35092,12.13889 -2.80202,14.62885 -1.79288,1.07496 -6.08487,1.49822 -8.39596,0.82802 z m -63.50787,-27.3743 c -5.67375,-1.77139 -10.43107,-5.6097 -13.75547,-11.09819 -3.42086,-5.64776 -4.61657,-10.0815 -4.61657,-17.11856 0,-5.42281 0.0806,-5.86097 1.83588,-9.97874 3.87076,-9.08062 11.9018,-13.89403 22.14654,-13.27354 3.97847,0.24096 4.95453,0.52496 8.20426,2.38712 8.72219,4.99803 13.94414,15.12603 13.97324,27.10128 0.0204,8.39702 -2.71927,14.58009 -8.2916,18.71298 -4.94831,3.67005 -13.57582,5.11606 -19.49628,3.26765 z m -8.01728,-20.15382 c 2.64775,-3.26775 4.25745,-11.61628 3.05455,-15.84219 -1.3853,-4.86669 -4.34071,-4.34926 -6.67789,1.16915 -1.18648,2.80145 -1.37807,3.92408 -1.37807,8.07484 0,3.66504 0.2069,5.18713 0.86289,6.34792 1.06589,1.88611 2.73145,1.98685 4.13852,0.25028 z m 98.72496,-24.61898 c -6.69528,-21.64949 18.77217,-20.6532 28.58905,-16.18316 51.87926,23.83221 -14.55088,68.35542 -28.58905,16.18316 z m 4.67526,-11.18735 c -4.14843,4.43354 -1.42115,12.62193 3.30296,14.55191 16.17025,6.60618 3.94172,-22.17422 -3.30296,-14.55191 z"
         id="path1" />
    </g>
  </g>
</svg>
