<?xml version="1.0" encoding="UTF-8" standalone="no"?>
<!-- Created with Inkscape (http://www.inkscape.org/) -->

<svg
   version="1.1"
   id="svg1"
   width="702"
   height="639"
   viewBox="0 0 702 639"
   xmlns="http://www.w3.org/2000/svg"
   xmlns:svg="http://www.w3.org/2000/svg">
  <defs
     id="defs1" />
  <g
     id="g1">
    <g
       id="g2">
      <path
         style="fill-opacity:1.0;fill:#333333"
         d="M 89.723255,594.5783 C 84.106845,593.07012 75.465636,587.36469 70.53952,581.91206 57.758874,567.76542 63.303033,547.89256 89.889961,512.55105 120.9485,471.2655 155.35259,442.00096 200.43121,418.52332 215.85663,410.48952 221,407.20236 221,405.3777 c 0,-1.58059 -6.43218,-8.83559 -18.36861,-20.71839 C 172.82004,354.9819 153.0612,309.48498 148.92744,261 c -1.76556,-20.70819 -0.29323,-39.82273 4.69862,-61 7.73251,-32.80417 16.93888,-51.0027 39.45905,-78 40.60516,-48.677688 93.04369,-73.949644 153.52574,-73.989408 53.84905,-0.0354 102.34962,20.560439 140.49999,59.663528 30.37683,31.13544 44.66078,56.70196 53.25832,95.32588 10.26861,46.13113 2.72297,98.47312 -20.44743,141.83792 -9.5808,17.93105 -15.26799,25.37314 -34.64705,45.33811 -7.30107,7.52182 -13.27161,14.27182 -13.26785,15 0.01,1.85158 7.21002,6.45022 20.99317,13.40748 32.30264,16.30526 73.99847,48.71591 94.44924,73.41649 16.28129,19.66465 29.89973,39.78402 37.74754,55.76679 4.67992,9.53107 5.01049,10.69099 4.61298,16.18649 -0.59951,8.28815 -4.92058,16.40577 -11.32752,21.28003 -6.51392,4.95566 -11.04781,6.10593 -21.71327,5.50879 C 581.00763,589.85964 573.14614,583.79404 557.5,560.44376 537.83825,531.1006 511.66707,506.2138 480.5,487.22265 454.22106,471.21 419.83129,458.8645 377.55275,450.26585 366.25354,447.96781 362.08183,447.61363 346.5,447.62949 c -15.61656,0.0159 -19.78758,0.38086 -31.5,2.75619 -61.13689,12.39882 -104.73542,32.71263 -141.33218,65.85073 -9.32025,8.43941 -22.7486,23.27453 -29.47464,32.56242 -22.82653,31.52084 -30.22932,40.12545 -37.46877,43.55169 -6.824759,3.22997 -11.155623,3.79748 -17.001155,2.22778 z M 373,377.59237 C 438.89106,362.24216 479.6019,312.22525 479.29457,247 c -0.10868,-23.06584 -4.01611,-40.23249 -13.77407,-60.51414 -17.69142,-36.77113 -51.86038,-62.33635 -93.88481,-70.24465 -12.63604,-2.37789 -38.87862,-2.32843 -51.00969,0.0962 -18.46122,3.68975 -34.23508,10.02146 -49.17219,19.73797 -9.8743,6.42319 -26.46053,22.91525 -33.25251,33.06373 -10.66331,15.93296 -18.96566,35.37291 -23.24049,54.41761 -2.85331,12.71169 -3.08964,32.98523 -0.52292,44.85793 6.3023,29.15213 19.86904,55.92091 37.04782,73.09969 18.83175,18.83174 51.7734,34.90426 79.01429,38.55177 10.52442,1.4092 30.93114,0.22144 42.5,-2.47369 z"
         id="path2" />
    </g>
  </g>
</svg>
