<?xml version="1.0" encoding="UTF-8" standalone="no"?>
<svg
   width="339.31229"
   height="253.79614"
   viewBox="0 0 339.31228 253.79615"
   version="1.1"
   id="svg3"
   xmlns="http://www.w3.org/2000/svg"
   xmlns:svg="http://www.w3.org/2000/svg">
  <defs
     id="defs3" />
  <g
     transform="matrix(0.98201952,0,0,0.73625322,-716.79093,-173.2327)"
     id="g3">
    <g
       transform="matrix(0.97692307,0,0,0.95454546,25.174855,17.415204)"
       id="g2">
      <path
         style="fill:#101828;fill-opacity:1;stroke-width:0.512299"
         d="m 988.581,394.75857 c -12.44698,-13.11771 -31.25165,-22.96844 -52.67087,-27.59141 -10.97033,-2.36776 -21.51931,-3.13944 -37.49299,-2.7427 -16.16091,0.40142 -26.80772,1.79783 -42.91581,5.62883 -5.02553,1.19522 -10.04194,2.34722 -11.14758,2.56001 -3.6563,0.70369 -14.97801,-3.20199 -17.06328,-5.88636 -3.21331,-4.13648 2.28297,-6.3186 20.71823,-8.22551 13.59217,-1.40594 17.57553,-2.68598 17.0312,-5.47287 -0.73275,-3.75146 -4.4293,-12.83743 -9.72629,-23.90672 -8.30252,-17.35007 -3.057,-25.65533 -0.62557,-28.28423 5.71198,-6.17577 12.84114,4.52772 20.74057,27.70318 1.84509,5.41318 10.76792,20.61455 17.3083,20.61455 2.01366,0 4.57524,-2.59533 5.62543,-5.69956 0.78298,-2.31442 0.8287,-3.08194 0.73393,-12.31932 -0.0982,-9.56647 -0.0755,-9.90492 0.785,-11.71374 1.15399,-2.42584 2.15246,-2.35176 3.90189,0.28946 0.784,1.18363 2.16557,3.27616 3.07015,4.65005 2.73423,4.1527 5.06418,3.02506 6.81981,-3.30067 1.41745,-5.10718 -3.45566,-76.16119 12.75353,-73.32762 6.27915,11.00795 8.04082,30.32164 8.29421,46.8478 0.18343,13.78638 0.68608,18.90431 2.3943,24.37959 1.61231,5.1677 4.5924,7.72606 7.38024,6.33579 1.94494,-0.96991 3.60622,-4.69406 5.63612,-12.63482 2.67977,-10.48285 4.27399,-12.97964 6.05429,-9.48194 0.91492,1.7975 1.02703,2.94221 1.23271,12.58454 0.17931,8.40676 0.80261,12.67397 2.04142,13.97655 1.46814,1.5437 3.42229,0.84246 6.0611,-2.17496 5.94956,-6.80328 8.57252,-14.73223 13.04757,-39.44162 3.00711,-16.60397 4.47747,-22.75599 6.80015,-28.45175 1.88264,-4.61662 5.52187,-9.84916 7.66248,-11.01718 2.41264,-1.31645 5.6385,-0.92615 7.42266,0.89809 2.4203,2.47485 3.3524,6.43978 3.158,13.43247 -0.2689,9.66014 -2.3387,15.83802 -11.77069,35.12999 -5.27575,10.79114 -6.03317,12.73256 -7.79418,19.97815 -1.2819,5.27413 -1.35352,5.9494 -1.35352,12.74981 0,6.4762 0.0951,7.49855 0.96923,10.41979 2.67078,8.92509 5.17055,14.27515 12.65573,5.67078 1.87075,-2.15059 2.39324,-1.53603 6.16323,-8.89787 12.4668,-69.66609 50.5269,-48.05341 16.47,15.52469 -9.3919,19.38981 -5.2647,38.30154 -4.0625,39.86613 3.859,9.2245 10.3007,6.30229 16,6.12955 6.7701,-1.06611 11.1528,-2.84294 11.9697,5.18173 -127.75346,363.85068 -1.8094,51.22755 -54.2779,-9.98068 z m 58.5417,11.75873 c -2.1949,-5.48187 -2.7149,-13.92702 -0.7807,-21.53167 7.6009,-29.88436 16.22,-13.0527 17.7162,-8.0371 2.7694,9.28457 -0.2863,22.34538 -7.4979,29.32513 -2.8552,2.94024 -6.5344,4.13834 -9.4376,0.24364 z m 8.5157,-37.30711 c -2.7992,2.43277 -6.5874,10.05979 -4.0357,11.50826 1.814,1.02994 6.1497,-13.5622 4.0357,-11.50826 z m -261.08478,-9.30631 c -3.58128,-1.75988 -7.52306,-7.48898 -9.34311,-13.57953 -1.9825,-6.63413 -1.0668,-15.04311 2.05313,-18.85452 2.03102,-2.48114 6.07589,-2.35037 8.94286,0.28911 2.3939,2.20394 5.68112,8.27279 6.75697,12.47462 1.91518,7.48011 1.01455,15.44788 -2.10437,18.61659 -1.34647,1.36801 -4.56982,1.90663 -6.30548,1.05373 z m -47.6953,-34.8364 c -4.26106,-2.25428 -7.83388,-7.13889 -10.33056,-14.12352 -2.56912,-7.1873 -3.46711,-12.82967 -3.46711,-21.785 0,-6.90105 0.0607,-7.45864 1.37878,-12.6989 2.90698,-11.55596 8.9384,-17.68148 16.63236,-16.89186 2.98789,0.30665 3.72092,0.66807 6.16152,3.03786 6.55049,6.36047 10.47224,19.24931 10.49411,34.48896 0.0153,10.68601 -2.04223,18.55455 -6.22712,23.81407 -3.71625,4.67048 -10.19564,6.51067 -14.64198,4.15839 z m -6.02109,-25.64767 c 1.9885,-4.15853 3.1974,-14.78282 2.294,-20.16069 -1.04038,-6.19334 -3.25993,-5.53486 -5.01518,1.48785 -0.89107,3.5651 -1.03495,4.99377 -1.03495,10.276 0,4.66411 0.15538,6.60111 0.64803,8.07833 0.80051,2.40026 2.05137,2.52845 3.1081,0.31851 z m 74.14383,-31.33001 c -5.02824,-27.55105 14.09816,-26.28315 21.47078,-20.59462 38.96206,30.32878 -10.92791,86.98882 -21.47078,20.59462 z m 3.51118,-14.23697 c -3.11552,5.6421 -1.06729,16.06261 2.48059,18.5187 12.14409,8.40699 2.96029,-28.21881 -2.48059,-18.5187 z"
         id="path1" />
      <path
         style="fill:#0088aa;fill-opacity:1;stroke-width:1.85957"
         d="m 831.66086,576.60815 c -36.08561,-5.97597 -69.6083,-25.11852 -85.06603,-48.57552 -10.27914,-15.5985 -13.54335,-26.27766 -13.3842,-43.78754 0.24764,-27.22953 11.27125,-46.63438 37.64142,-66.25934 23.90765,-17.79234 51.97511,-26.63654 86.47708,-27.2494 65.94832,-1.17147 118.29447,31.8218 126.45477,79.70317 0.9956,5.84157 1.247,13.66625 0.55874,17.38822 l -1.25147,6.76715 h -68.01569 -68.01574 l -1.46606,-5.72963 c -1.53414,-5.99573 -0.0481,-21.67249 2.32059,-24.48264 0.80005,-0.9491 10.97329,-1.63321 24.28707,-1.63321 h 22.91038 l -1.43386,-4.18866 c -3.76401,-10.99557 -16.75487,-17.35083 -33.11147,-16.1985 -18.13758,1.2778 -29.40827,10.07616 -34.80683,27.17171 -6.82993,21.62832 4.52534,45.19406 24.83412,51.53864 10.68984,3.3396 16.56161,2.6709 28.56895,-3.2535 l 11.01892,-5.43668 22.31812,19.93657 c 29.06877,25.96691 27.13867,23.6537 22.72195,27.23191 -5.02934,4.07462 -22.32572,10.86252 -37.77337,14.82404 -16.70911,4.28502 -47.15647,5.31858 -65.78739,2.23321 z"
         id="path2" />
    </g>
  </g>
</svg>
